<svg xmlns="http://www.w3.org/2000/svg" viewBox="0 0 256 256" width="256" height="256">
  <defs>
    <linearGradient id="g" x1="0%" y1="0%" x2="100%" y2="100%">
      <stop offset="0%" stop-color="#6366f1"/>
      <stop offset="100%" stop-color="#8b5cf6"/>
    </linearGradient>
  </defs>
  <!-- 圆形背景 -->
  <circle cx="128" cy="128" r="120" fill="url(#g)" opacity="0.15"/>
  <circle cx="128" cy="128" r="120" fill="none" stroke="url(#g)" stroke-width="4"/>
  <!-- 翅膀（展开的羽翼） -->
  <path d="M128 40 C80 40 30 60 20 100 C50 85 80 80 100 90 C80 110 55 130 40 160 C70 140 100 125 120 120 C110 140 100 175 95 200 C105 180 120 155 128 130" 
        fill="url(#g)" opacity="0.9"/>
  <path d="M128 40 C176 40 226 60 236 100 C206 85 176 80 156 90 C176 110 201 130 216 160 C186 140 156 125 136 120 C146 140 156 175 161 200 C151 180 136 155 128 130" 
        fill="url(#g)" opacity="0.9"/>
  <!-- 中心圆点 -->
  <circle cx="128" cy="96" r="18" fill="url(#g)"/>
  <circle cx="128" cy="96" r="12" fill="#fff"/>
  <circle cx="128" cy="96" r="6" fill="url(#g)"/>
  <!-- 底部的智慧之眼 -->
  <path d="M108 160 Q128 145 148 160 Q128 175 108 160Z" fill="url(#g)"/>
  <circle cx="128" cy="160" r="4" fill="#fff"/>
  <!-- 光环 -->
  <ellipse cx="128" cy="45" rx="25" ry="8" fill="none" stroke="url(#g)" stroke-width="2.5" opacity="0.6"/>
  <ellipse cx="128" cy="45" rx="18" ry="5" fill="none" stroke="url(#g)" stroke-width="2" opacity="0.4"/>
</svg>