<svg width="150" height="150" viewBox="0 0 150 150" fill="none" xmlns="http://www.w3.org/2000/svg">
<g clip-path="url(#clip0_13_5693)">
<g clip-path="url(#clip1_13_5693)">
<g clip-path="url(#clip2_13_5693)">
<g clip-path="url(#clip3_13_5693)">
<mask id="mask0_13_5693" style="mask-type:alpha" maskUnits="userSpaceOnUse" x="-23" y="-13" width="182" height="152">
<ellipse cx="67.9507" cy="62.8192" rx="67.04" ry="97.225" transform="rotate(60 67.9507 62.8192)" fill="#D9D9D9"/>
</mask>
<g mask="url(#mask0_13_5693)">
<rect x="35" y="39" width="79" height="68" rx="1.84228" fill="white"/>
<path d="M38.1815 132.42C38.105 132.721 37.8337 132.932 37.5233 132.932H37.1923V133.855H37.3602C37.6405 133.856 37.8283 134.144 37.7147 134.4L37.1288 135.723C37.0511 135.898 36.877 136.011 36.6854 136.011H31.1063C30.9147 136.011 30.7407 135.898 30.663 135.723L30.077 134.4C29.9634 134.144 30.1512 133.856 30.4315 133.855H30.6005V132.932H30.2675C29.9571 132.931 29.6857 132.721 29.6093 132.42L29.453 131.803H38.3378L38.1815 132.42ZM119.187 132.42C119.111 132.721 118.839 132.932 118.529 132.932H118.197V133.855H118.365C118.645 133.856 118.833 134.144 118.72 134.4L118.134 135.723C118.056 135.897 117.883 136.01 117.691 136.011H112.111C111.92 136.01 111.747 135.898 111.669 135.723L111.082 134.4C110.968 134.144 111.157 133.856 111.437 133.855H111.605V132.932H111.273C110.963 132.931 110.692 132.721 110.615 132.42L110.459 131.803H119.344L119.187 132.42ZM118.802 31C122.115 31 124.802 33.6863 124.802 37V125.802C124.802 129.115 122.115 131.802 118.802 131.802H29.9999C26.6862 131.802 23.9999 129.115 23.9999 125.802V37C23.9999 33.6863 26.6862 31 29.9999 31H118.802Z" fill="#E3E4E6"/>
<rect x="35" y="38" width="80" height="68" rx="3" fill="white"/>
<path d="M111.03 90.2822C111.566 90.2824 112 90.7166 112 91.252V100.964C112 102.088 111.088 103 109.964 103H97.0361C95.9116 103 95 102.088 95 100.964V91.252C95.0001 90.7165 95.4343 90.2822 95.9697 90.2822H111.03ZM97.3682 100.393C97.0501 100.393 96.7922 100.651 96.792 100.969C96.792 101.287 97.0499 101.546 97.3682 101.546H109.38C109.698 101.546 109.956 101.287 109.956 100.969C109.956 100.651 109.698 100.393 109.38 100.393H97.3682Z" fill="#C9CBCF"/>
<path d="M95 43.0362C95 41.9116 95.9116 41 97.0362 41H109.964C111.088 41 112 41.9116 112 43.0362V88.0304C112 88.5659 111.566 89 111.03 89H95.9696C95.4341 89 95 88.5659 95 88.0304V43.0362Z" fill="#C9CBCF"/>
<path d="M92.0303 90.2822C92.5656 90.2824 92.9999 90.7166 93 91.252V100.964C93 102.088 92.0882 103 90.9639 103H78.0361C76.9116 103 76 102.088 76 100.964V91.252C76.0001 90.7165 76.4343 90.2822 76.9697 90.2822H92.0303ZM78.3682 100.393C78.0501 100.393 77.7922 100.651 77.792 100.969C77.792 101.287 78.0499 101.546 78.3682 101.546H90.3799C90.698 101.546 90.9561 101.287 90.9561 100.969C90.9558 100.651 90.6979 100.393 90.3799 100.393H78.3682Z" fill="#C9CBCF"/>
<path d="M76 43.0362C76 41.9116 76.9116 41 78.0362 41H90.9638C92.0884 41 93 41.9116 93 43.0362V88.0304C93 88.5659 92.5659 89 92.0304 89H76.9696C76.4341 89 76 88.5659 76 88.0304V43.0362Z" fill="#C9CBCF"/>
<path d="M73.0303 90.2822C73.5656 90.2824 73.9999 90.7166 74 91.252V100.964C74 102.088 73.0882 103 71.9639 103H59.0361C57.9116 103 57 102.088 57 100.964V91.252C57.0001 90.7165 57.4343 90.2822 57.9697 90.2822H73.0303ZM59.3682 100.393C59.0501 100.393 58.7922 100.651 58.792 100.969C58.792 101.287 59.0499 101.546 59.3682 101.546H71.3799C71.698 101.546 71.9561 101.287 71.9561 100.969C71.9558 100.651 71.6979 100.393 71.3799 100.393H59.3682Z" fill="#C9CBCF"/>
<path d="M57 43.0362C57 41.9116 57.9116 41 59.0362 41H71.9638C73.0884 41 74 41.9116 74 43.0362V88.0304C74 88.5659 73.5659 89 73.0304 89H57.9696C57.4341 89 57 88.5659 57 88.0304V43.0362Z" fill="#C9CBCF"/>
<path d="M54.0303 90.2822C54.5656 90.2824 54.9999 90.7166 55 91.252V100.964C55 102.088 54.0882 103 52.9639 103H40.0361C38.9116 103 38 102.088 38 100.964V91.252C38.0001 90.7165 38.4343 90.2822 38.9697 90.2822H54.0303ZM40.3682 100.393C40.0501 100.393 39.7922 100.651 39.792 100.969C39.792 101.287 40.0499 101.546 40.3682 101.546H52.3799C52.698 101.546 52.9561 101.287 52.9561 100.969C52.9558 100.651 52.6979 100.393 52.3799 100.393H40.3682Z" fill="#C9CBCF"/>
<path d="M38 43.0362C38 41.9116 38.9116 41 40.0362 41H52.9638C54.0884 41 55 41.9116 55 43.0362V88.0304C55 88.5659 54.5659 89 54.0304 89H38.9696C38.4341 89 38 88.5659 38 88.0304V43.0362Z" fill="#C9CBCF"/>
<path d="M25.8722 123.924C25.8722 127.238 28.5585 129.924 31.8722 129.924H116.923C120.236 129.924 122.923 127.238 122.923 123.924V113.915C122.923 110.601 120.236 107.915 116.923 107.915H31.8722C28.5585 107.915 25.8722 110.601 25.8722 113.915V123.924Z" fill="#C9CBCF"/>
<path d="M34.8378 115.809C36.7792 115.809 38.3534 117.383 38.3534 119.324C38.353 121.265 36.779 122.84 34.8378 122.84C32.8966 122.84 31.3225 121.265 31.3221 119.324C31.3221 117.383 32.8963 115.809 34.8378 115.809ZM89.954 117.203C90.3821 117.203 90.7291 117.55 90.7294 117.979V119.805C90.7291 120.233 90.3821 120.581 89.954 120.581H84.0233C83.5952 120.581 83.2472 120.233 83.2469 119.805V117.979C83.2472 117.55 83.5951 117.203 84.0233 117.203H89.954ZM79.3495 118.347C79.9089 118.347 80.3621 118.8 80.3622 119.359C80.3619 119.919 79.9088 120.373 79.3495 120.373H76.076C75.5167 120.373 75.0626 119.919 75.0624 119.359C75.0624 118.8 75.5166 118.347 76.076 118.347H79.3495ZM107.76 118.503C108.188 118.503 108.535 118.854 108.535 119.282C108.535 119.71 108.188 120.062 107.76 120.062H94.9178C94.49 120.061 94.1428 119.71 94.1424 119.282C94.1424 118.854 94.4897 118.503 94.9178 118.503H107.76ZM45.535 118.944C45.7012 118.944 45.8365 119.079 45.8368 119.245C45.8368 119.411 45.7014 119.547 45.535 119.547C45.369 119.546 45.2342 119.411 45.2342 119.245C45.2345 119.079 45.3692 118.945 45.535 118.944ZM49.2792 118.944C49.4452 118.945 49.5797 119.079 49.5799 119.245C49.5799 119.411 49.4454 119.547 49.2792 119.547C49.1129 119.547 48.9774 119.411 48.9774 119.245C48.9777 119.079 49.1131 118.944 49.2792 118.944ZM53.0672 118.944C53.2332 118.945 53.3677 119.079 53.368 119.245C53.368 119.411 53.2334 119.547 53.0672 119.547C52.901 119.547 52.7655 119.411 52.7655 119.245C52.7658 119.079 52.9012 118.944 53.0672 118.944ZM56.8524 118.944C57.0186 118.944 57.1539 119.079 57.1542 119.245C57.1542 119.411 57.0188 119.547 56.8524 119.547C56.6863 119.547 56.5516 119.411 56.5516 119.245C56.5519 119.079 56.6865 118.945 56.8524 118.944ZM60.6415 118.944C60.8076 118.944 60.942 119.079 60.9422 119.245C60.9422 119.411 60.8077 119.547 60.6415 119.547C60.4752 119.547 60.3397 119.411 60.3397 119.245C60.34 119.079 60.4754 118.944 60.6415 118.944Z" fill="white"/>
</g>
<path d="M130 99C120.709 109.537 94.065 128.516 67 135" stroke="#92979E" stroke-linecap="round" stroke-linejoin="round"/>
</g>
<path d="M130.992 67.7916L126.863 63.6622L125.927 64.6609L124.928 65.5968L129.057 69.7262L130.992 67.7916Z" fill="#E3E4E6" stroke="#C9CBCF" stroke-width="1.25" stroke-miterlimit="10"/>
<path d="M145.892 79.8886L131.462 65.4589L128.955 68.1401L126.499 70.4219L140.929 84.8516L145.892 79.8886Z" fill="#0066FF"/>
<path d="M92.3704 31.1043C101.964 21.5111 117.518 21.5112 127.111 31.1043C136.704 40.6977 136.704 56.2518 127.111 65.8451C117.518 75.4382 101.964 75.4384 92.3704 65.8451C82.7773 56.2518 82.7773 40.6977 92.3704 31.1043ZM109.746 27.9652C98.4201 27.9652 89.2388 37.1465 89.2388 48.472C89.239 59.7971 98.4198 68.9778 109.745 68.9781C121.07 68.9781 130.252 59.7967 130.252 48.4713C130.252 37.146 121.071 27.9653 109.746 27.9652Z" fill="#0066FF"/>
<path d="M120.147 18.7061L120.247 14.7572" stroke="#0066FF" stroke-width="2" stroke-linecap="round" stroke-linejoin="round"/>
<line x1="127.201" y1="21.9214" x2="130.332" y2="18.9445" stroke="#0066FF" stroke-width="2" stroke-linecap="round" stroke-linejoin="round"/>
<path d="M132.007 28.8473L138.488 27.6136" stroke="#0066FF" stroke-width="2" stroke-linecap="round" stroke-linejoin="round"/>
</g>
</g>
</g>
<defs>
<clipPath id="clip0_13_5693">
<rect width="150" height="150" fill="white"/>
</clipPath>
<clipPath id="clip1_13_5693">
<rect width="150" height="150" fill="white"/>
</clipPath>
<clipPath id="clip2_13_5693">
<rect width="160" height="150" fill="white" transform="translate(-5)"/>
</clipPath>
<clipPath id="clip3_13_5693">
<rect width="160" height="150" fill="white" transform="translate(-5 7)"/>
</clipPath>
</defs>
</svg>
