<svg width="150" height="150" viewBox="0 0 150 150" fill="none" xmlns="http://www.w3.org/2000/svg">
<g clip-path="url(#clip0_13_5675)">
<g clip-path="url(#clip1_13_5675)">
<g clip-path="url(#clip2_13_5675)">
<mask id="mask0_13_5675" style="mask-type:alpha" maskUnits="userSpaceOnUse" x="-18" y="-20" width="182" height="152">
<ellipse cx="72.9502" cy="55.8191" rx="67.04" ry="97.225" transform="rotate(60 72.9502 55.8191)" fill="#D9D9D9"/>
</mask>
<g mask="url(#mask0_13_5675)">
<path d="M52.967 51.394C53.1272 48.3367 55.7389 45.8583 58.8004 45.8583H117.005C120.067 45.8583 122.419 48.3367 122.258 51.394L118.124 130.278C117.964 133.335 115.352 135.814 112.291 135.814H54.086C51.0246 135.814 48.6726 133.335 48.8328 130.278L52.967 51.394Z" fill="white"/>
<mask id="mask1_13_5675" style="mask-type:alpha" maskUnits="userSpaceOnUse" x="48" y="45" width="74" height="91">
<path d="M52.4235 51.1036C52.5837 48.0463 55.1954 45.5679 58.2569 45.5679H116.462C119.523 45.5679 121.875 48.0463 121.715 51.1036L117.581 129.987C117.42 133.045 114.809 135.523 111.747 135.523H53.5426C50.4811 135.523 48.1292 133.045 48.2894 129.987L52.4235 51.1036Z" fill="url(#paint0_linear_13_5675)"/>
</mask>
<g mask="url(#mask1_13_5675)">
<circle cx="110.973" cy="113.289" r="0.40543" transform="rotate(90.2579 110.973 113.289)" fill="#C9CBCF"/>
<circle cx="107.73" cy="113.274" r="0.40543" transform="rotate(90.2579 107.73 113.274)" fill="#C9CBCF"/>
<circle cx="110.947" cy="119.127" r="0.40543" transform="rotate(90.2579 110.947 119.127)" fill="#C9CBCF"/>
<circle cx="107.703" cy="119.112" r="0.40543" transform="rotate(90.2579 107.703 119.112)" fill="#C9CBCF"/>
<circle cx="109.345" cy="114.579" r="0.40543" transform="rotate(90.2579 109.345 114.579)" fill="#C9CBCF"/>
<circle cx="106.102" cy="114.564" r="0.40543" transform="rotate(90.2579 106.102 114.564)" fill="#C9CBCF"/>
<circle cx="109.319" cy="120.417" r="0.40543" transform="rotate(90.2579 109.319 120.417)" fill="#C9CBCF"/>
<circle cx="106.076" cy="120.402" r="0.40543" transform="rotate(90.2579 106.076 120.402)" fill="#C9CBCF"/>
<circle cx="110.964" cy="115.235" r="0.40543" transform="rotate(90.2579 110.964 115.235)" fill="#C9CBCF"/>
<circle cx="107.721" cy="115.22" r="0.40543" transform="rotate(90.2579 107.721 115.22)" fill="#C9CBCF"/>
<circle cx="110.938" cy="121.073" r="0.40543" transform="rotate(90.2579 110.938 121.073)" fill="#C9CBCF"/>
<circle cx="107.695" cy="121.059" r="0.40543" transform="rotate(90.2579 107.695 121.059)" fill="#C9CBCF"/>
<circle cx="109.337" cy="116.525" r="0.40543" transform="rotate(90.2579 109.337 116.525)" fill="#C9CBCF"/>
<circle cx="106.093" cy="116.51" r="0.40543" transform="rotate(90.2579 106.093 116.51)" fill="#C9CBCF"/>
<circle cx="109.311" cy="122.363" r="0.40543" transform="rotate(90.2579 109.311 122.363)" fill="#C9CBCF"/>
<circle cx="106.067" cy="122.349" r="0.40543" transform="rotate(90.2579 106.067 122.349)" fill="#C9CBCF"/>
<circle cx="110.955" cy="117.181" r="0.40543" transform="rotate(90.2579 110.955 117.181)" fill="#C9CBCF"/>
<circle cx="107.712" cy="117.166" r="0.40543" transform="rotate(90.2579 107.712 117.166)" fill="#C9CBCF"/>
<circle cx="110.929" cy="123.019" r="0.40543" transform="rotate(90.2579 110.929 123.019)" fill="#C9CBCF"/>
<circle cx="107.686" cy="123.004" r="0.40543" transform="rotate(90.2579 107.686 123.004)" fill="#C9CBCF"/>
<circle cx="109.328" cy="118.471" r="0.40543" transform="rotate(90.2579 109.328 118.471)" fill="#C9CBCF"/>
<circle cx="106.084" cy="118.456" r="0.40543" transform="rotate(90.2579 106.084 118.456)" fill="#C9CBCF"/>
<circle cx="109.302" cy="124.309" r="0.40543" transform="rotate(90.2579 109.302 124.309)" fill="#C9CBCF"/>
<circle cx="106.058" cy="124.295" r="0.40543" transform="rotate(90.2579 106.058 124.295)" fill="#C9CBCF"/>
<circle cx="104.486" cy="113.26" r="0.40543" transform="rotate(90.2579 104.486 113.26)" fill="#C9CBCF"/>
<circle cx="117.46" cy="113.318" r="0.40543" transform="rotate(90.2579 117.46 113.318)" fill="#C9CBCF"/>
<circle cx="97.9996" cy="113.23" r="0.40543" transform="rotate(90.2579 97.9996 113.23)" fill="#C9CBCF"/>
<circle cx="120.703" cy="113.332" r="0.40543" transform="rotate(90.2579 120.703 113.332)" fill="#C9CBCF"/>
<circle cx="101.243" cy="113.245" r="0.40543" transform="rotate(90.2579 101.243 113.245)" fill="#C9CBCF"/>
<circle cx="114.216" cy="113.303" r="0.40543" transform="rotate(90.2579 114.216 113.303)" fill="#C9CBCF"/>
<circle cx="94.7563" cy="113.216" r="0.40543" transform="rotate(90.2579 94.7563 113.216)" fill="#C9CBCF"/>
<circle cx="104.46" cy="119.098" r="0.40543" transform="rotate(90.2579 104.46 119.098)" fill="#C9CBCF"/>
<circle cx="117.434" cy="119.156" r="0.40543" transform="rotate(90.2579 117.434 119.156)" fill="#C9CBCF"/>
<circle cx="97.9731" cy="119.069" r="0.40543" transform="rotate(90.2579 97.9731 119.069)" fill="#C9CBCF"/>
<circle cx="120.677" cy="119.171" r="0.40543" transform="rotate(90.2579 120.677 119.171)" fill="#C9CBCF"/>
<circle cx="101.216" cy="119.083" r="0.40543" transform="rotate(90.2579 101.216 119.083)" fill="#C9CBCF"/>
<circle cx="114.19" cy="119.142" r="0.40543" transform="rotate(90.2579 114.19 119.142)" fill="#C9CBCF"/>
<circle cx="94.7297" cy="119.054" r="0.40543" transform="rotate(90.2579 94.7297 119.054)" fill="#C9CBCF"/>
<circle cx="102.859" cy="114.55" r="0.40543" transform="rotate(90.2579 102.859 114.55)" fill="#C9CBCF"/>
<circle cx="115.832" cy="114.608" r="0.40543" transform="rotate(90.2579 115.832 114.608)" fill="#C9CBCF"/>
<circle cx="96.3719" cy="114.52" r="0.40543" transform="rotate(90.2579 96.3719 114.52)" fill="#C9CBCF"/>
<circle cx="119.076" cy="114.623" r="0.40543" transform="rotate(90.2579 119.076 114.623)" fill="#C9CBCF"/>
<circle cx="99.6152" cy="114.535" r="0.40543" transform="rotate(90.2579 99.6152 114.535)" fill="#C9CBCF"/>
<circle cx="112.589" cy="114.594" r="0.40543" transform="rotate(90.2579 112.589 114.594)" fill="#C9CBCF"/>
<circle cx="93.1285" cy="114.506" r="0.40543" transform="rotate(90.2579 93.1285 114.506)" fill="#C9CBCF"/>
<circle cx="102.832" cy="120.388" r="0.40543" transform="rotate(90.2579 102.832 120.388)" fill="#C9CBCF"/>
<circle cx="115.806" cy="120.446" r="0.40543" transform="rotate(90.2579 115.806 120.446)" fill="#C9CBCF"/>
<circle cx="96.3457" cy="120.359" r="0.40543" transform="rotate(90.2579 96.3457 120.359)" fill="#C9CBCF"/>
<circle cx="119.049" cy="120.461" r="0.40543" transform="rotate(90.2579 119.049 120.461)" fill="#C9CBCF"/>
<circle cx="99.589" cy="120.373" r="0.40543" transform="rotate(90.2579 99.589 120.373)" fill="#C9CBCF"/>
<circle cx="112.562" cy="120.432" r="0.40543" transform="rotate(90.2579 112.562 120.432)" fill="#C9CBCF"/>
<circle cx="93.1023" cy="120.344" r="0.40543" transform="rotate(90.2579 93.1023 120.344)" fill="#C9CBCF"/>
<circle cx="104.477" cy="115.206" r="0.40543" transform="rotate(90.2579 104.477 115.206)" fill="#C9CBCF"/>
<circle cx="117.451" cy="115.264" r="0.40543" transform="rotate(90.2579 117.451 115.264)" fill="#C9CBCF"/>
<circle cx="97.9906" cy="115.176" r="0.40543" transform="rotate(90.2579 97.9906 115.176)" fill="#C9CBCF"/>
<circle cx="120.695" cy="115.279" r="0.40543" transform="rotate(90.2579 120.695 115.279)" fill="#C9CBCF"/>
<circle cx="101.234" cy="115.191" r="0.40543" transform="rotate(90.2579 101.234 115.191)" fill="#C9CBCF"/>
<circle cx="114.208" cy="115.249" r="0.40543" transform="rotate(90.2579 114.208 115.249)" fill="#C9CBCF"/>
<circle cx="94.7473" cy="115.162" r="0.40543" transform="rotate(90.2579 94.7473 115.162)" fill="#C9CBCF"/>
<circle cx="104.451" cy="121.044" r="0.40543" transform="rotate(90.2579 104.451 121.044)" fill="#C9CBCF"/>
<circle cx="117.425" cy="121.102" r="0.40543" transform="rotate(90.2579 117.425 121.102)" fill="#C9CBCF"/>
<circle cx="97.9645" cy="121.015" r="0.40543" transform="rotate(90.2579 97.9645 121.015)" fill="#C9CBCF"/>
<circle cx="120.668" cy="121.117" r="0.40543" transform="rotate(90.2579 120.668 121.117)" fill="#C9CBCF"/>
<circle cx="101.208" cy="121.029" r="0.40543" transform="rotate(90.2579 101.208 121.029)" fill="#C9CBCF"/>
<circle cx="114.181" cy="121.088" r="0.40543" transform="rotate(90.2579 114.181 121.088)" fill="#C9CBCF"/>
<circle cx="94.7211" cy="121" r="0.40543" transform="rotate(90.2579 94.7211 121)" fill="#C9CBCF"/>
<circle cx="102.85" cy="116.496" r="0.40543" transform="rotate(90.2579 102.85 116.496)" fill="#C9CBCF"/>
<circle cx="115.823" cy="116.554" r="0.40543" transform="rotate(90.2579 115.823 116.554)" fill="#C9CBCF"/>
<circle cx="96.3633" cy="116.466" r="0.40543" transform="rotate(90.2579 96.3633 116.466)" fill="#C9CBCF"/>
<circle cx="119.067" cy="116.569" r="0.40543" transform="rotate(90.2579 119.067 116.569)" fill="#C9CBCF"/>
<circle cx="99.6066" cy="116.481" r="0.40543" transform="rotate(90.2579 99.6066 116.481)" fill="#C9CBCF"/>
<circle cx="112.58" cy="116.54" r="0.40543" transform="rotate(90.2579 112.58 116.54)" fill="#C9CBCF"/>
<circle cx="93.1195" cy="116.452" r="0.40543" transform="rotate(90.2579 93.1195 116.452)" fill="#C9CBCF"/>
<circle cx="102.824" cy="122.334" r="0.40543" transform="rotate(90.2579 102.824 122.334)" fill="#C9CBCF"/>
<circle cx="115.797" cy="122.392" r="0.40543" transform="rotate(90.2579 115.797 122.392)" fill="#C9CBCF"/>
<circle cx="96.3371" cy="122.305" r="0.40543" transform="rotate(90.2579 96.3371 122.305)" fill="#C9CBCF"/>
<circle cx="119.041" cy="122.407" r="0.40543" transform="rotate(90.2579 119.041 122.407)" fill="#C9CBCF"/>
<circle cx="99.5805" cy="122.319" r="0.40543" transform="rotate(90.2579 99.5805 122.319)" fill="#C9CBCF"/>
<circle cx="112.554" cy="122.378" r="0.40543" transform="rotate(90.2579 112.554 122.378)" fill="#C9CBCF"/>
<circle cx="93.0937" cy="122.29" r="0.40543" transform="rotate(90.2579 93.0937 122.29)" fill="#C9CBCF"/>
<circle cx="104.469" cy="117.152" r="0.40543" transform="rotate(90.2579 104.469 117.152)" fill="#C9CBCF"/>
<circle cx="117.442" cy="117.21" r="0.40543" transform="rotate(90.2579 117.442 117.21)" fill="#C9CBCF"/>
<circle cx="97.982" cy="117.123" r="0.40543" transform="rotate(90.2579 97.982 117.123)" fill="#C9CBCF"/>
<circle cx="120.686" cy="117.225" r="0.40543" transform="rotate(90.2579 120.686 117.225)" fill="#C9CBCF"/>
<circle cx="101.225" cy="117.137" r="0.40543" transform="rotate(90.2579 101.225 117.137)" fill="#C9CBCF"/>
<circle cx="114.199" cy="117.196" r="0.40543" transform="rotate(90.2579 114.199 117.196)" fill="#C9CBCF"/>
<circle cx="94.7387" cy="117.108" r="0.40543" transform="rotate(90.2579 94.7387 117.108)" fill="#C9CBCF"/>
<circle cx="104.442" cy="122.99" r="0.40543" transform="rotate(90.2579 104.442 122.99)" fill="#C9CBCF"/>
<circle cx="117.416" cy="123.048" r="0.40543" transform="rotate(90.2579 117.416 123.048)" fill="#C9CBCF"/>
<circle cx="97.9555" cy="122.961" r="0.40543" transform="rotate(90.2579 97.9555 122.961)" fill="#C9CBCF"/>
<circle cx="120.66" cy="123.063" r="0.40543" transform="rotate(90.2579 120.66 123.063)" fill="#C9CBCF"/>
<circle cx="101.199" cy="122.975" r="0.40543" transform="rotate(90.2579 101.199 122.975)" fill="#C9CBCF"/>
<circle cx="114.173" cy="123.034" r="0.40543" transform="rotate(90.2579 114.173 123.034)" fill="#C9CBCF"/>
<circle cx="94.7121" cy="122.946" r="0.40543" transform="rotate(90.2579 94.7121 122.946)" fill="#C9CBCF"/>
<circle cx="102.841" cy="118.442" r="0.40543" transform="rotate(90.2579 102.841 118.442)" fill="#C9CBCF"/>
<circle cx="115.815" cy="118.5" r="0.40543" transform="rotate(90.2579 115.815 118.5)" fill="#C9CBCF"/>
<circle cx="96.3543" cy="118.413" r="0.40543" transform="rotate(90.2579 96.3543 118.413)" fill="#C9CBCF"/>
<circle cx="119.058" cy="118.515" r="0.40543" transform="rotate(90.2579 119.058 118.515)" fill="#C9CBCF"/>
<circle cx="99.5981" cy="118.427" r="0.40543" transform="rotate(90.2579 99.5981 118.427)" fill="#C9CBCF"/>
<circle cx="112.572" cy="118.485" r="0.40543" transform="rotate(90.2579 112.572 118.485)" fill="#C9CBCF"/>
<circle cx="93.1109" cy="118.398" r="0.40543" transform="rotate(90.2579 93.1109 118.398)" fill="#C9CBCF"/>
<circle cx="102.815" cy="124.28" r="0.40543" transform="rotate(90.2579 102.815 124.28)" fill="#C9CBCF"/>
<circle cx="115.788" cy="124.338" r="0.40543" transform="rotate(90.2579 115.788 124.338)" fill="#C9CBCF"/>
<circle cx="96.3281" cy="124.251" r="0.40543" transform="rotate(90.2579 96.3281 124.251)" fill="#C9CBCF"/>
<circle cx="119.032" cy="124.353" r="0.40543" transform="rotate(90.2579 119.032 124.353)" fill="#C9CBCF"/>
<circle cx="99.5714" cy="124.265" r="0.40543" transform="rotate(90.2579 99.5714 124.265)" fill="#C9CBCF"/>
<circle cx="112.545" cy="124.324" r="0.40543" transform="rotate(90.2579 112.545 124.324)" fill="#C9CBCF"/>
<circle cx="93.0848" cy="124.236" r="0.40543" transform="rotate(90.2579 93.0848 124.236)" fill="#C9CBCF"/>
<circle cx="110.919" cy="125.29" r="0.40543" transform="rotate(90.2579 110.919 125.29)" fill="#C9CBCF"/>
<circle cx="107.676" cy="125.275" r="0.40543" transform="rotate(90.2579 107.676 125.275)" fill="#C9CBCF"/>
<circle cx="110.893" cy="131.128" r="0.40543" transform="rotate(90.2579 110.893 131.128)" fill="#C9CBCF"/>
<circle cx="107.649" cy="131.113" r="0.40543" transform="rotate(90.2579 107.649 131.113)" fill="#C9CBCF"/>
<circle cx="109.291" cy="126.58" r="0.40543" transform="rotate(90.2579 109.291 126.58)" fill="#C9CBCF"/>
<circle cx="106.048" cy="126.565" r="0.40543" transform="rotate(90.2579 106.048 126.565)" fill="#C9CBCF"/>
<circle cx="110.91" cy="127.236" r="0.40543" transform="rotate(90.2579 110.91 127.236)" fill="#C9CBCF"/>
<circle cx="107.666" cy="127.221" r="0.40543" transform="rotate(90.2579 107.666 127.221)" fill="#C9CBCF"/>
<circle cx="109.283" cy="128.526" r="0.40543" transform="rotate(90.2579 109.283 128.526)" fill="#C9CBCF"/>
<circle cx="106.039" cy="128.511" r="0.40543" transform="rotate(90.2579 106.039 128.511)" fill="#C9CBCF"/>
<circle cx="110.901" cy="129.182" r="0.40543" transform="rotate(90.2579 110.901 129.182)" fill="#C9CBCF"/>
<circle cx="107.658" cy="129.167" r="0.40543" transform="rotate(90.2579 107.658 129.167)" fill="#C9CBCF"/>
<circle cx="109.274" cy="130.472" r="0.40543" transform="rotate(90.2579 109.274 130.472)" fill="#C9CBCF"/>
<circle cx="106.031" cy="130.457" r="0.40543" transform="rotate(90.2579 106.031 130.457)" fill="#C9CBCF"/>
<circle cx="104.432" cy="125.261" r="0.40543" transform="rotate(90.2579 104.432 125.261)" fill="#C9CBCF"/>
<circle cx="117.406" cy="125.319" r="0.40543" transform="rotate(90.2579 117.406 125.319)" fill="#C9CBCF"/>
<circle cx="97.9454" cy="125.231" r="0.40543" transform="rotate(90.2579 97.9454 125.231)" fill="#C9CBCF"/>
<circle cx="120.649" cy="125.334" r="0.40543" transform="rotate(90.2579 120.649 125.334)" fill="#C9CBCF"/>
<circle cx="101.189" cy="125.246" r="0.40543" transform="rotate(90.2579 101.189 125.246)" fill="#C9CBCF"/>
<circle cx="114.162" cy="125.304" r="0.40543" transform="rotate(90.2579 114.162 125.304)" fill="#C9CBCF"/>
<circle cx="94.7016" cy="125.217" r="0.40543" transform="rotate(90.2579 94.7016 125.217)" fill="#C9CBCF"/>
<circle cx="104.406" cy="131.099" r="0.40543" transform="rotate(90.2579 104.406 131.099)" fill="#C9CBCF"/>
<circle cx="117.379" cy="131.157" r="0.40543" transform="rotate(90.2579 117.379 131.157)" fill="#C9CBCF"/>
<circle cx="97.9189" cy="131.069" r="0.40543" transform="rotate(90.2579 97.9189 131.069)" fill="#C9CBCF"/>
<circle cx="120.623" cy="131.172" r="0.40543" transform="rotate(90.2579 120.623 131.172)" fill="#C9CBCF"/>
<circle cx="101.162" cy="131.084" r="0.40543" transform="rotate(90.2579 101.162 131.084)" fill="#C9CBCF"/>
<circle cx="114.136" cy="131.142" r="0.40543" transform="rotate(90.2579 114.136 131.142)" fill="#C9CBCF"/>
<circle cx="94.6755" cy="131.055" r="0.40543" transform="rotate(90.2579 94.6755 131.055)" fill="#C9CBCF"/>
<circle cx="102.804" cy="126.551" r="0.40543" transform="rotate(90.2579 102.804 126.551)" fill="#C9CBCF"/>
<circle cx="115.778" cy="126.609" r="0.40543" transform="rotate(90.2579 115.778 126.609)" fill="#C9CBCF"/>
<circle cx="96.3177" cy="126.521" r="0.40543" transform="rotate(90.2579 96.3177 126.521)" fill="#C9CBCF"/>
<circle cx="119.022" cy="126.624" r="0.40543" transform="rotate(90.2579 119.022 126.624)" fill="#C9CBCF"/>
<circle cx="99.561" cy="126.536" r="0.40543" transform="rotate(90.2579 99.561 126.536)" fill="#C9CBCF"/>
<circle cx="112.535" cy="126.594" r="0.40543" transform="rotate(90.2579 112.535 126.594)" fill="#C9CBCF"/>
<circle cx="93.0743" cy="126.507" r="0.40543" transform="rotate(90.2579 93.0743 126.507)" fill="#C9CBCF"/>
<circle cx="104.423" cy="127.207" r="0.40543" transform="rotate(90.2579 104.423 127.207)" fill="#C9CBCF"/>
<circle cx="117.397" cy="127.265" r="0.40543" transform="rotate(90.2579 117.397 127.265)" fill="#C9CBCF"/>
<circle cx="97.9364" cy="127.178" r="0.40543" transform="rotate(90.2579 97.9364 127.178)" fill="#C9CBCF"/>
<circle cx="120.64" cy="127.28" r="0.40543" transform="rotate(90.2579 120.64 127.28)" fill="#C9CBCF"/>
<circle cx="101.18" cy="127.192" r="0.40543" transform="rotate(90.2579 101.18 127.192)" fill="#C9CBCF"/>
<circle cx="114.153" cy="127.251" r="0.40543" transform="rotate(90.2579 114.153 127.251)" fill="#C9CBCF"/>
<circle cx="94.693" cy="127.163" r="0.40543" transform="rotate(90.2579 94.693 127.163)" fill="#C9CBCF"/>
<circle cx="102.796" cy="128.497" r="0.40543" transform="rotate(90.2579 102.796 128.497)" fill="#C9CBCF"/>
<circle cx="115.769" cy="128.555" r="0.40543" transform="rotate(90.2579 115.769 128.555)" fill="#C9CBCF"/>
<circle cx="96.3091" cy="128.468" r="0.40543" transform="rotate(90.2579 96.3091 128.468)" fill="#C9CBCF"/>
<circle cx="119.013" cy="128.57" r="0.40543" transform="rotate(90.2579 119.013 128.57)" fill="#C9CBCF"/>
<circle cx="99.5524" cy="128.482" r="0.40543" transform="rotate(90.2579 99.5524 128.482)" fill="#C9CBCF"/>
<circle cx="112.526" cy="128.541" r="0.40543" transform="rotate(90.2579 112.526 128.541)" fill="#C9CBCF"/>
<circle cx="93.0653" cy="128.453" r="0.40543" transform="rotate(90.2579 93.0653 128.453)" fill="#C9CBCF"/>
<circle cx="104.415" cy="129.153" r="0.40543" transform="rotate(90.2579 104.415 129.153)" fill="#C9CBCF"/>
<circle cx="117.388" cy="129.211" r="0.40543" transform="rotate(90.2579 117.388 129.211)" fill="#C9CBCF"/>
<circle cx="97.9278" cy="129.124" r="0.40543" transform="rotate(90.2579 97.9278 129.124)" fill="#C9CBCF"/>
<circle cx="120.631" cy="129.226" r="0.40543" transform="rotate(90.2579 120.631 129.226)" fill="#C9CBCF"/>
<circle cx="101.171" cy="129.138" r="0.40543" transform="rotate(90.2579 101.171 129.138)" fill="#C9CBCF"/>
<circle cx="114.145" cy="129.197" r="0.40543" transform="rotate(90.2579 114.145 129.197)" fill="#C9CBCF"/>
<circle cx="94.6845" cy="129.109" r="0.40543" transform="rotate(90.2579 94.6845 129.109)" fill="#C9CBCF"/>
<circle cx="102.787" cy="130.443" r="0.40543" transform="rotate(90.2579 102.787 130.443)" fill="#C9CBCF"/>
<circle cx="115.761" cy="130.501" r="0.40543" transform="rotate(90.2579 115.761 130.501)" fill="#C9CBCF"/>
<circle cx="96.3001" cy="130.414" r="0.40543" transform="rotate(90.2579 96.3001 130.414)" fill="#C9CBCF"/>
<circle cx="119.004" cy="130.516" r="0.40543" transform="rotate(90.2579 119.004 130.516)" fill="#C9CBCF"/>
<circle cx="99.5439" cy="130.428" r="0.40543" transform="rotate(90.2579 99.5439 130.428)" fill="#C9CBCF"/>
<circle cx="112.517" cy="130.487" r="0.40543" transform="rotate(90.2579 112.517 130.487)" fill="#C9CBCF"/>
<circle cx="93.0567" cy="130.399" r="0.40543" transform="rotate(90.2579 93.0567 130.399)" fill="#C9CBCF"/>
<path d="M64.614 112.749H81.114" stroke="#C9CBCF" stroke-width="1.8" stroke-linecap="round" stroke-linejoin="round"/>
</g>
<path d="M35.9993 33.8841C59.2333 27.8475 102.216 24.2256 88.2759 33.8841C70.8503 45.9574 66.2865 28.4512 113.999 20" stroke="#C9CBCF" stroke-linecap="round" stroke-linejoin="round"/>
<path d="M88.1907 39C91.5424 39.0004 94.3386 41.3806 94.9807 44.543H111.135C112.239 44.5432 113.072 45.4365 112.995 46.5381L112.554 52.8584H118.904C120.008 52.8587 120.856 53.7526 120.798 54.8555L116.293 140.816C116.235 141.919 115.293 142.813 114.189 142.813H48.8977C47.7932 142.813 46.9444 141.919 47.0022 140.816L51.5071 54.8555C51.5649 53.7525 52.5071 52.8585 53.6116 52.8584H62.6643L63.1057 46.5381C63.1829 45.4364 64.1409 44.543 65.2454 44.543H81.3997C82.0418 41.3804 84.8386 39 88.1907 39ZM87.8547 42.5684C85.9217 42.5684 84.3547 44.1354 84.3547 46.0684C84.355 48.0011 85.9219 49.5684 87.8547 49.5684C89.7872 49.5679 91.3545 48.0009 91.3547 46.0684C91.3547 44.1356 89.7874 42.5688 87.8547 42.5684Z" fill="#C9CBCF"/>
<path d="M79.2653 29.8096C82.9526 29.8098 86.0289 32.4282 86.735 35.9072H104.505C105.719 35.9075 106.636 36.8897 106.551 38.1016L106.065 45.0537H113.049C114.264 45.0539 115.198 46.0377 115.134 47.251L110.178 141.808C110.115 143.021 109.078 144.004 107.863 144.004H36.0426C34.8278 144.004 33.8942 143.021 33.9576 141.808L38.9137 47.251C38.9773 46.0378 40.0133 45.054 41.2281 45.0537H51.1862L51.6725 38.1016C51.7573 36.8896 52.8111 35.9073 54.026 35.9072H71.7965C72.5027 32.4281 75.5778 29.8096 79.2653 29.8096ZM78.8961 33.7344C76.7699 33.7345 75.0465 35.4578 75.0465 37.584C75.0466 39.7101 76.77 41.4335 78.8961 41.4336C81.0222 41.4334 82.7466 39.7101 82.7467 37.584C82.7467 35.4578 81.0223 33.7345 78.8961 33.7344Z" fill="#E3E4E6"/>
<path d="M48.0006 108H82.5006" stroke="white" stroke-width="1.5" stroke-linecap="round" stroke-linejoin="round"/>
<path d="M47.0006 114H61.5006" stroke="white" stroke-width="1.5" stroke-linecap="round" stroke-linejoin="round"/>
<circle cx="106" cy="64" r="24" fill="white" stroke="#0066FF" stroke-width="1.69231" stroke-linecap="round" stroke-linejoin="round"/>
<path d="M108.953 68.2188L109.536 57.1104C109.626 55.3926 108.304 54 106.584 54C104.864 54 103.396 55.3926 103.306 57.1104L102.724 68.2188" stroke="#0066FF" stroke-width="2" stroke-linejoin="round"/>
<path d="M108.627 61.4897C111.941 61.4897 114.487 64.1724 114.313 67.4815C114.14 70.7906 111.313 73.4732 107.999 73.4733H102.999C99.6855 73.4733 97.1398 70.7907 97.3132 67.4815C97.4867 64.1723 100.314 61.4897 103.627 61.4897H108.627ZM107.723 66.3688C107.776 65.3666 106.793 64.4756 105.638 64.6982C104.946 64.8096 104.344 65.3671 104.195 66.0352C104.04 66.8145 104.342 67.594 105.011 67.9281L104.911 69.8211C104.9 70.0438 105.117 70.2667 105.346 70.2667H106.147C106.375 70.2666 106.615 70.0437 106.627 69.8211L106.726 67.9281C107.316 67.5941 107.688 67.0369 107.723 66.3688Z" fill="#0066FF"/>
<path d="M78.4998 37.9635C83.4998 37.5 88.0998 34 88.0998 34" stroke="#C9CBCF" stroke-linecap="round" stroke-linejoin="round"/>
</g>
<path d="M130.5 96C121.5 104.5 101.5 119.5 69.5 128.5" stroke="#C9CBCF" stroke-linecap="round" stroke-linejoin="round"/>
</g>
</g>
</g>
<defs>
<linearGradient id="paint0_linear_13_5675" x1="105.999" y1="123.568" x2="128.477" y2="152.599" gradientUnits="userSpaceOnUse">
<stop stop-color="white" stop-opacity="0"/>
<stop offset="1" stop-color="#999999"/>
</linearGradient>
<clipPath id="clip0_13_5675">
<rect width="150" height="150" fill="white"/>
</clipPath>
<clipPath id="clip1_13_5675">
<rect width="150" height="150" fill="white"/>
</clipPath>
<clipPath id="clip2_13_5675">
<rect width="160" height="150" fill="white"/>
</clipPath>
</defs>
</svg>
